<?xml version="1.0" encoding="UTF-8" standalone="no"?>
<svg
   viewBox="0 0 210.00005 159.99997"
   version="1.1"
   id="svg2"
   sodipodi:docname="logo.svg"
   xml:space="preserve"
   width="210.00006"
   height="159.99997"
   inkscape:version="1.4.2 (ebf0e940d0, 2025-05-08)"
   xmlns:inkscape="http://www.inkscape.org/namespaces/inkscape"
   xmlns:sodipodi="http://sodipodi.sourceforge.net/DTD/sodipodi-0.dtd"
   xmlns="http://www.w3.org/2000/svg"
   xmlns:svg="http://www.w3.org/2000/svg"><defs
     id="defs2" /><sodipodi:namedview
     id="namedview2"
     pagecolor="#ffffff"
     bordercolor="#000000"
     borderopacity="0.25"
     inkscape:showpageshadow="2"
     inkscape:pageopacity="0.0"
     inkscape:pagecheckerboard="0"
     inkscape:deskcolor="#d1d1d1"
     inkscape:zoom="2.803197"
     inkscape:cx="118.4362"
     inkscape:cy="82.584278"
     inkscape:window-width="1920"
     inkscape:window-height="1000"
     inkscape:window-x="0"
     inkscape:window-y="0"
     inkscape:window-maximized="1"
     inkscape:current-layer="svg2" /><g
     id="g1"
     transform="matrix(0.99965499,0,0,0.99945326,-22.919604,0)"><path
       style="fill:#000000;stroke-width:1.17803"
       d="m 133.62904,159.30138 c -0.2122,-0.47544 -0.31181,-25.8504 -0.31181,-79.433972 0,-71.0960125 0.046,-78.7904148 0.47334,-79.30291666 C 134.21383,0.05695613 137.1052,-0.00274245 161.12556,9.2305371e-5 188.73348,0.00342265 194.31978,0.21256846 199.09481,1.4221058 c 14.90327,3.7750688 25.26872,14.9785662 28.52441,30.8306222 0.80325,3.911078 1.09242,11.757242 0.59778,16.219645 -0.91538,8.25785 -4.21479,15.942449 -9.28847,21.633541 -2.23469,2.506639 -6.72533,6.140186 -8.71411,7.050919 -0.70445,0.322591 -1.21429,0.715559 -1.13301,0.873279 0.0813,0.157704 1.06127,0.647497 2.17772,1.088398 8.36982,3.305384 15.47739,10.709958 18.96258,19.754979 3.24762,8.428471 3.68585,20.261001 1.11557,30.121291 -1.68774,6.47464 -4.28827,11.52234 -8.53074,16.55837 -6.84502,8.12541 -15.56524,12.70391 -26.79381,14.06792 C 194.06679,159.85746 181.80532,160 163.41712,160 c -28.83405,0 -29.48307,-0.0152 -29.78808,-0.69862 z"
       id="path3" /><path
       style="fill:#409eff;fill-opacity:1;stroke:#409eff;stroke-width:1.15294;stroke-opacity:1"
       d="m 185.97418,66.037923 c 6.76264,-0.973938 11.8491,-5.457529 13.60691,-11.99416 0.83538,-3.10643 0.83161,-8.182167 -0.008,-11.305795 -1.28975,-4.796047 -4.97302,-9.101635 -9.39128,-10.978022 -1.8607,-0.790219 -2.1255,-0.805864 -15.52284,-0.917101 L 161.02912,30.72968 v 17.602736 c 0,9.681504 0.0904,17.706524 0.20081,17.833376 0.32648,0.374977 22.03189,0.262814 24.74463,-0.127864 z"
       id="path5" /><path
       style="fill:#409eff;fill-opacity:1;stroke:#409eff;stroke-width:1.15294;stroke-opacity:1"
       d="m 192.17527,129.02382 c 7.72857,-2.27029 12.8013,-9.53834 12.82521,-18.37556 0.007,-2.47927 -0.95178,-6.78253 -2.02138,-9.07532 -1.29461,-2.775133 -4.35798,-6.078825 -7.04865,-7.601599 -3.91852,-2.217673 -4.71682,-2.307044 -20.66943,-2.313776 l -14.23228,-0.0066 v 19.027845 19.02784 h 14.41 c 13.36433,0 14.57882,-0.0497 16.73653,-0.68343 z"
       id="path4" /><path
       style="fill:#409eff;fill-opacity:1;stroke:#409eff;stroke-width:1.15239;stroke-opacity:1"
       d="m 66.961837,159.26224 c -18.74526,-2.6758 -31.523128,-11.43942 -38.653434,-26.51021 -2.597265,-5.48965 -4.476695,-13.04107 -4.688395,-18.83763 l -0.09487,-2.5975 h 13.066941 13.06694 l 0.663337,2.909 c 1.712534,7.51016 5.989802,12.95913 12.499633,15.92375 6.020414,2.74172 14.22311,3.36587 20.522546,1.56157 9.161676,-2.62412 14.496353,-9.44586 13.891123,-17.76332 C 96.789051,107.81023 93.69909,103.45132 87.268343,99.887317 83.541084,97.821619 80.725607,96.73317 69.216344,92.908539 55.49382,88.348426 51.869543,86.913947 46.671342,83.985271 39.865779,80.151016 36.096983,76.810237 32.67573,71.579134 25.998928,61.370292 24.216291,46.663649 28.040603,33.339639 33.89837,12.93102 51.234425,0.66360602 74.217699,0.66360602 c 16.023139,0 28.561711,5.37534728 37.462971,16.06056998 6.10593,7.329666 10.08286,17.972019 10.37007,27.750515 l 0.0712,2.424329 H 109.37763 96.633331 l -0.799427,-2.770662 c -0.439687,-1.523863 -1.26535,-3.779918 -1.834801,-5.013452 -1.238435,-2.682674 -4.564125,-6.61163 -7.020332,-8.293788 -8.80943,-6.033237 -22.22728,-4.737534 -28.811812,2.782233 -2.57616,2.942063 -3.748367,5.663944 -4.01626,9.325808 -0.423294,5.786056 1.679745,10.55284 6.174714,13.995715 3.602054,2.758963 8.219841,4.757654 20.464028,8.857349 16.99619,5.690788 22.088569,8.069724 29.055799,13.573577 2.98781,2.360273 7.46525,7.786024 9.36732,11.351277 5.42986,10.177823 6.66745,24.532293 3.15845,36.633733 -4.73241,16.32052 -18.61277,28.04969 -37.22287,31.45402 -3.560741,0.65137 -14.86269,0.94183 -18.186303,0.46741 z"
       id="path2" /></g></svg>
